<svg width="370" height="838" viewBox="65 0 351 838" fill="none" xmlns="http://www.w3.org/2000/svg">
<path d="M55.5 311C114.245 311 170.585 333.178 212.124 372.654C253.663 412.13 277 465.672 277 521.5C277 577.328 253.663 630.87 212.124 670.346C170.585 709.822 114.245 732 55.5 732L55.5 521.5V311Z" fill="black" fill-opacity="0.04"/>
<path d="M228 81.5C228 103.115 218.939 123.845 202.811 139.129C186.683 154.413 164.809 163 142 163C119.191 163 97.317 154.413 81.1888 139.129C65.0607 123.845 56 103.115 56 81.5L142 81.5H228Z" fill="black" fill-opacity="0.04"/>
<path d="M52 813.5C52 791.885 61.0607 771.155 77.1888 755.871C93.3169 740.587 115.191 732 138 732C160.809 732 182.683 740.587 198.811 755.871C214.939 771.155 224 791.885 224 813.5L138 813.5L52 813.5Z" fill="black" fill-opacity="0.04"/>
<ellipse cx="293" cy="200.5" rx="47" ry="44.5" fill="#FF6666" fill-opacity="0.1"/>
<ellipse cx="304" cy="687.5" rx="47" ry="44.5" fill="#FF6666" fill-opacity="0.1"/>
<ellipse cx="245.5" cy="267.5" rx="19.5" ry="18.5" fill="#FF6666" fill-opacity="0.1"/>
<ellipse cx="315.5" cy="403.5" rx="19.5" ry="18.5" fill="#FF6666" fill-opacity="0.1"/>
<ellipse cx="312" cy="550.5" rx="8" ry="7.5" fill="#FF6666" fill-opacity="0.1"/>
</svg>
