<svg width="304" height="740" viewBox="0 0 304 740" fill="none" xmlns="http://www.w3.org/2000/svg">
<mask id="mask0" mask-type="alpha" maskUnits="userSpaceOnUse" x="0" y="0" width="304" height="740">
<rect width="304" height="740" fill="#C4C4C4"/>
</mask>
<g mask="url(#mask0)">
<path d="M0.354937 231.718C60.9184 231.718 119.001 254.161 161.826 294.109C204.651 334.057 228.71 388.239 228.71 444.734C228.71 501.23 204.651 555.411 161.826 595.36C119.001 635.308 60.9185 657.751 0.354966 657.751L0.354935 444.734L0.354937 231.718Z" fill="black" fill-opacity="0.04"/>
<path d="M178.193 -0.525711C178.193 21.3478 168.852 42.3255 152.225 57.7924C135.598 73.2593 113.046 81.9486 89.5319 81.9486C66.0174 81.9486 43.466 73.2594 26.8388 57.7924C10.2115 42.3255 0.870426 21.3478 0.870422 -0.525699L89.5319 -0.525711H178.193Z" fill="black" fill-opacity="0.04"/>
<path d="M-3.25339 740.225C-3.25339 718.351 6.08771 697.374 22.715 681.907C39.3422 666.44 61.8936 657.75 85.4081 657.75C108.923 657.75 131.474 666.44 148.101 681.907C164.729 697.374 174.07 718.351 174.07 740.225L85.4081 740.225L-3.25339 740.225Z" fill="black" fill-opacity="0.04"/>
<ellipse cx="245.205" cy="119.897" rx="48.4545" ry="45.032" fill="#FF6666" fill-opacity="0.1"/>
<ellipse cx="256.545" cy="612.719" rx="48.4545" ry="45.032" fill="#FF6666" fill-opacity="0.1"/>
<ellipse cx="196.235" cy="187.698" rx="20.1035" ry="18.7212" fill="#FF6666" fill-opacity="0.1"/>
<ellipse cx="268.401" cy="325.324" rx="20.1035" ry="18.7212" fill="#FF6666" fill-opacity="0.1"/>
<ellipse cx="264.793" cy="474.081" rx="8.24758" ry="7.58966" fill="#FF6666" fill-opacity="0.1"/>
</g>
</svg>
