<svg width="110" height="62" viewBox="0 0 110 62" fill="none" xmlns="http://www.w3.org/2000/svg">
<path d="M40.0781 86.375H0.5625V58.1094C0.5625 46.6719 1.54688 37.6719 3.51562 31.1094C5.57812 24.4531 9.32812 18.5 14.7656 13.25C20.2031 8 27.1406 3.875 35.5781 0.875L43.3125 17.1875C35.4375 19.8125 29.7656 23.4688 26.2969 28.1562C22.9219 32.8438 21.1406 39.0781 20.9531 46.8594H40.0781V86.375ZM106.031 86.375H66.5156V58.1094C66.5156 46.5781 67.5 37.5312 69.4688 30.9688C71.5312 24.4062 75.2812 18.5 80.7188 13.25C86.25 8 93.1875 3.875 101.531 0.875L109.266 17.1875C101.391 19.8125 95.7188 23.4688 92.25 28.1562C88.875 32.8438 87.0938 39.0781 86.9062 46.8594H106.031V86.375Z" fill="#FF6666" fill-opacity="0.1"/>
</svg>
