<svg width="304" height="518" viewBox="0 0 304 518" fill="none" xmlns="http://www.w3.org/2000/svg">
<path d="M304 274C285.17 274 267.111 266.52 253.795 253.205C240.48 239.889 233 221.83 233 203C233 184.17 240.48 166.111 253.795 152.795C267.111 139.48 285.17 132 304 132V203V274Z" fill="black" fill-opacity="0.04"/>
<path d="M304 350C265.278 350 228.143 334.618 200.762 307.238C173.382 279.857 158 242.722 158 204C158 165.278 173.382 128.143 200.762 100.762C228.143 73.3821 265.278 58 304 58L304 204V350Z" fill="black" fill-opacity="0.04"/>
<path d="M303.5 414C244.755 414 188.415 391.822 146.876 352.346C105.337 312.87 82 259.328 82 203.5C82 147.672 105.337 94.1305 146.876 54.6541C188.415 15.1777 244.754 -6.99997 303.5 -7L303.5 203.5L303.5 414Z" fill="black" fill-opacity="0.04"/>
<path d="M304 518C216.213 518 132.022 484.865 69.9477 425.885C7.87314 366.905 -27 286.911 -27 203.5C-27 120.089 7.87307 40.0952 69.9476 -18.885C132.022 -77.8652 216.213 -111 304 -111L304 203.5V518Z" fill="black" fill-opacity="0.04"/>
</svg>
