<svg width="112" height="88" viewBox="0 0 112 88" fill="none" xmlns="http://www.w3.org/2000/svg">
<path d="M40.7141 88H0V58.9079C0 47.136 1.01423 37.8728 3.04269 31.1184C5.16774 24.2675 9.03148 18.1404 14.6339 12.7368C20.2363 7.33333 27.3842 3.08772 36.0776 0L44.0466 16.7895C35.9327 19.4912 30.0888 23.2544 26.5149 28.0789C23.0375 32.9035 21.2022 39.3202 21.0091 47.3289H40.7141V88ZM108.668 88H67.9534V58.9079C67.9534 47.0395 68.9677 37.7281 70.9961 30.9737C73.1212 24.2193 76.9849 18.1404 82.5873 12.7368C88.2863 7.33333 95.4342 3.08772 104.031 0L112 16.7895C103.886 19.4912 98.0423 23.2544 94.4683 28.0789C90.991 32.9035 89.1557 39.3202 88.9625 47.3289H108.668V88Z" fill="white" fill-opacity="0.2"/>
</svg>
